<svg xmlns="http://www.w3.org/2000/svg" width="16" height="16" viewBox="0 0 16 16"><rect id="frame" width="16" height="16" fill="none"/>


   <g>
       <path d="M444.865,67.128c-4.16-4.16-10.923-4.16-15.083,0L67.116,429.795c-4.16,4.16-4.16,10.923,0,15.083
			c2.091,2.069,4.821,3.115,7.552,3.115c2.731,0,5.461-1.045,7.531-3.115L444.865,82.211
			C449.025,78.051,449.025,71.288,444.865,67.128z"/>
       <path fill="#D3D3D3" d="M8 3C4.818 3 2.1 5.073 1 8c1.1 2.927 3.818 5 7 5s5.9-2.073 7-5c-1.1-2.927-3.818-5-7-5zm0 8.5A3.501 3.501 0 0 1 4.5 8c0-1.932 1.568-3.5 3.5-3.5s3.5 1.568 3.5 3.5-1.568 3.5-3.5 3.5zM8 6c-1.107 0-2 .893-2 2s.893 2 2 2 2-.893 2-2-.893-2-2-2z"/>

   </g>





</svg>
